<?xml version="1.0" encoding="UTF-8" standalone="no"?>
<svg
   version="1.1"
   width="459"
   height="419"
   style="clip-rule:evenodd;fill-rule:evenodd;image-rendering:optimizeQuality;shape-rendering:geometricPrecision;text-rendering:geometricPrecision"
   id="svg47"
   sodipodi:docname="Captura de pantalla 2025-02-05 154101.svg"
   inkscape:export-filename="Captura de pantalla 2025-02-05 154101.pdf"
   inkscape:export-xdpi="150"
   inkscape:export-ydpi="150"
   xmlns:inkscape="http://www.inkscape.org/namespaces/inkscape"
   xmlns:sodipodi="http://sodipodi.sourceforge.net/DTD/sodipodi-0.dtd"
   xmlns:xlink="http://www.w3.org/1999/xlink"
   xmlns="http://www.w3.org/2000/svg"
   xmlns:svg="http://www.w3.org/2000/svg">
  <sodipodi:namedview
     id="namedview47"
     pagecolor="#ffffff"
     bordercolor="#000000"
     borderopacity="0.25"
     inkscape:showpageshadow="2"
     inkscape:pageopacity="0.0"
     inkscape:pagecheckerboard="0"
     inkscape:deskcolor="#d1d1d1"
     inkscape:zoom="1.3660131"
     inkscape:cx="41.727273"
     inkscape:cy="282.20813"
     inkscape:window-width="1920"
     inkscape:window-height="991"
     inkscape:window-x="2391"
     inkscape:window-y="-9"
     inkscape:window-maximized="1"
     inkscape:current-layer="path2"
     showguides="true">
    <sodipodi:guide
       position="325.07966,205.08413"
       orientation="0,-1"
       id="guide74"
       inkscape:locked="false" />
    <sodipodi:guide
       position="195.1875,397.27148"
       orientation="1,0"
       id="guide75"
       inkscape:locked="false" />
  </sodipodi:namedview>
  <defs
     id="defs47">
    <marker
       style="overflow:visible"
       id="ConcaveTriangle"
       refX="0"
       refY="0"
       orient="auto-start-reverse"
       inkscape:stockid="Concave triangle arrow"
       markerWidth="1"
       markerHeight="1"
       viewBox="0 0 1 1"
       inkscape:isstock="true"
       inkscape:collect="always"
       preserveAspectRatio="xMidYMid">
      <path
         transform="scale(0.7)"
         d="M -2,-4 9,0 -2,4 c 2,-2.33 2,-5.66 0,-8 z"
         style="fill:context-stroke;fill-rule:evenodd;stroke:none"
         id="path7" />
    </marker>
    <linearGradient
       id="linearGradient47"
       inkscape:collect="always">
      <stop
         style="stop-color:#ffffff;stop-opacity:1;"
         offset="0"
         id="stop47" />
      <stop
         style="stop-color:#999999;stop-opacity:0.96511626;"
         offset="1"
         id="stop48" />
    </linearGradient>
    <radialGradient
       inkscape:collect="always"
       xlink:href="#linearGradient47"
       id="radialGradient48"
       cx="205.14748"
       cy="213.27908"
       fx="205.14748"
       fy="213.27908"
       r="153.35252"
       gradientTransform="matrix(1,0,0,1.2525754,0,-53.869057)"
       gradientUnits="userSpaceOnUse"
       spreadMethod="reflect" />
    <radialGradient
       inkscape:collect="always"
       xlink:href="#linearGradient47"
       id="radialGradient2"
       gradientUnits="userSpaceOnUse"
       gradientTransform="matrix(1,0,0,1.2525754,0,-53.869057)"
       cx="205.14748"
       cy="213.27908"
       fx="205.14748"
       fy="213.27908"
       r="153.35252"
       spreadMethod="reflect" />
    <radialGradient
       inkscape:collect="always"
       xlink:href="#linearGradient47"
       id="radialGradient3"
       gradientUnits="userSpaceOnUse"
       gradientTransform="matrix(1,0,0,1.2525754,0,-53.869057)"
       cx="205.14748"
       cy="213.27908"
       fx="205.14748"
       fy="213.27908"
       r="153.35252"
       spreadMethod="reflect" />
  </defs>
  <g
     id="g2"
     style="fill:url(#radialGradient48);fill-opacity:1;fill-rule:evenodd;stroke:none;stroke-width:2;stroke-dasharray:none;stroke-opacity:1">
    <g
       id="path2"
       style="fill:url(#radialGradient3);stroke:none;stroke-width:2;stroke-dasharray:none">
      <path
         style="color:#000000;clip-rule:nonzero;fill:url(#radialGradient2);stroke:#000000;stroke-width:2;stroke-dasharray:none;stroke-opacity:1;shape-rendering:auto"
         d="m 311.5,82.5 c 15.91,24.286 25.077,50.952 27.5,80 m 0,0 c 1.585,36.82 -4.33831,72.39177 -17,107 -10.35009,28.28991 -20.44492,56.67109 -33,84 -9.58396,20.8616 -24.61782,38.53986 -46.5,45.5 -48.03207,15.27773 -96.59696,8.61246 -140,-17 C 72.567157,364.3364 65.036734,336.11487 78,303.5 c 5.919037,-14.89197 13.268366,-29.34988 17,-45 5.42742,-22.7621 4.424856,-46.1986 -4,-68 -5.491148,-14.2097 -16.051105,-25.49703 -26,-37 -7.102509,-8.21196 -10.9775,-18.254 -13,-29 -1.1914,-14.289 2.8086,-26.9557 12,-38 33.4611,-34.9784 73.961,-56.6451 121.5,-65 52.276,-3.0228 94.942,19.3105 126,61 v 0"
         id="path72"
         sodipodi:nodetypes="cccssssssssccccc" />
    </g>
  </g>
  <g
     id="g45"
     style="stroke-width:0.7;stroke-dasharray:none">
    <path
       style="opacity:1;stroke-width:0.7;stroke-dasharray:none"
       fill="#181818"
       d="m 315.5,316.5 c 0.235,-0.597 0.735,-0.93 1.5,-1 5.061,1.879 10.228,3.379 15.5,4.5 -1.616,0.615 -2.949,1.615 -4,3 6.362,5.227 11.61188,11.51166 13.5,19.5 1.97954,8.37515 2.13318,17.30658 6,25 7.15024,14.22611 20.009,18.33 35.5,14 1.021,0.502 1.188,1.168 0.5,2 -17.692,5.211 -31.65403,-0.007 -39,-17 -2.98496,-6.90496 -3.38947,-14.64186 -5,-22 -1.72138,-7.86459 -6.145,-14.138 -12.5,-19 -1.084,1.165 -1.917,2.498 -2.5,4 -3.03,-4.515 -6.197,-8.849 -9.5,-13 z"
       id="path45"
       sodipodi:nodetypes="ccccssccssccc" />
  </g>
  <g
     inkscape:label=""
     transform="matrix(1.3958498,0,0,1.3958498,384.41527,339.8748)"
     id="g50">
    <g
       fill="#000000"
       fill-opacity="1"
       id="g48"
       transform="matrix(3.2,0,0,3.2,-295.46,-239.432)">
      <g
         id="use2"
         transform="translate(91.925003,81.962997)">
        <path
           d="m 4.609375,-3.375 c -0.09375,-0.625 -0.5,-1.1875 -1.28125,-1.1875 -0.609375,0 -1.25,0.171875 -2.03125,0.9375 -0.828125,0.828125 -0.890625,1.765625 -0.890625,2.0625 0,0.625 0.4375,1.78125 1.828125,1.78125 2.375,0 3.40625,-3.34375 3.40625,-4.78125 0,-1.578125 -0.921875,-2.578125 -2.15625,-2.578125 -1.4375,0 -1.90625,1.296875 -1.90625,1.578125 0,0.140625 0.09375,0.34375 0.390625,0.34375 0.328125,0 0.53125,-0.296875 0.53125,-0.515625 0,-0.359375 -0.3125,-0.359375 -0.46875,-0.359375 0.4375,-0.734375 1.15625,-0.796875 1.4375,-0.796875 0.734375,0 1.421875,0.515625 1.421875,1.8125 0,0.390625 -0.0625,0.890625 -0.265625,1.703125 z m -2.34375,3.3125 c -1.09375,0 -1.09375,-1.03125 -1.09375,-1.125 0,-0.265625 0.25,-1.65625 0.65625,-2.265625 0.390625,-0.5625 0.890625,-0.890625 1.5,-0.890625 1.09375,0 1.109375,1.125 1.109375,1.328125 0,0.71875 -0.640625,2.953125 -2.171875,2.953125 z m 0,0"
           id="path48" />
      </g>
    </g>
    <g
       fill="#000000"
       fill-opacity="1"
       id="g49"
       transform="matrix(3.2,0,0,3.2,-295.46,-239.432)">
      <g
         id="use3"
         transform="translate(97.767998,81.962997)">
        <path
           d="M 6.75,-1.609375 H 6.5 c -0.046875,0.25 -0.09375,0.484375 -0.1875,0.71875 -0.046875,0.15625 -0.078125,0.25 -0.65625,0.25 H 4.859375 C 5,-1.203125 5.296875,-1.6875 5.75,-2.34375 c 0.46875,-0.703125 0.875,-1.390625 0.875,-2.1875 0,-1.375 -1.34375,-2.5 -3.03125,-2.5 -1.703125,0 -3.03125,1.140625 -3.03125,2.5 0,0.796875 0.40625,1.484375 0.875,2.1875 0.4375,0.65625 0.75,1.140625 0.890625,1.703125 H 1.53125 C 0.953125,-0.640625 0.921875,-0.734375 0.875,-0.875 0.78125,-1.109375 0.734375,-1.359375 0.6875,-1.609375 h -0.25 L 0.765625,0 h 1.59375 c 0.21875,0 0.25,0 0.25,-0.203125 0,-0.703125 -0.3125,-1.578125 -0.53125,-2.21875 -0.21875,-0.578125 -0.5,-1.359375 -0.5,-2.109375 0,-1.59375 1.109375,-2.28125 2.015625,-2.28125 0.953125,0 2.015625,0.71875 2.015625,2.28125 0,0.75 -0.28125,1.5 -0.5625,2.3125 -0.15625,0.421875 -0.46875,1.328125 -0.46875,2.015625 C 4.578125,0 4.609375,0 4.828125,0 h 1.59375 z m 0,0"
           id="path49" />
      </g>
    </g>
  </g>
  <g
     inkscape:label=""
     transform="translate(106.19999,338.99611)"
     id="g52">
    <g
       fill="#000000"
       fill-opacity="1"
       id="g51"
       transform="matrix(4.8,0,0,4.8,-443.34,-359.672)">
      <g
         id="use1"
         transform="translate(91.925003,81.962997)">
        <path
           d="M 6.75,-1.609375 H 6.5 c -0.046875,0.25 -0.09375,0.484375 -0.1875,0.71875 -0.046875,0.15625 -0.078125,0.25 -0.65625,0.25 H 4.859375 C 5,-1.203125 5.296875,-1.6875 5.75,-2.34375 c 0.46875,-0.703125 0.875,-1.390625 0.875,-2.1875 0,-1.375 -1.34375,-2.5 -3.03125,-2.5 -1.703125,0 -3.03125,1.140625 -3.03125,2.5 0,0.796875 0.40625,1.484375 0.875,2.1875 0.4375,0.65625 0.75,1.140625 0.890625,1.703125 H 1.53125 C 0.953125,-0.640625 0.921875,-0.734375 0.875,-0.875 0.78125,-1.109375 0.734375,-1.359375 0.6875,-1.609375 h -0.25 L 0.765625,0 h 1.59375 c 0.21875,0 0.25,0 0.25,-0.203125 0,-0.703125 -0.3125,-1.578125 -0.53125,-2.21875 -0.21875,-0.578125 -0.5,-1.359375 -0.5,-2.109375 0,-1.59375 1.109375,-2.28125 2.015625,-2.28125 0.953125,0 2.015625,0.71875 2.015625,2.28125 0,0.75 -0.28125,1.5 -0.5625,2.3125 -0.15625,0.421875 -0.46875,1.328125 -0.46875,2.015625 C 4.578125,0 4.609375,0 4.828125,0 h 1.59375 z m 0,0"
           id="path50" />
      </g>
    </g>
  </g>
  <g
     inkscape:label=""
     transform="translate(116.63024,189.47711)"
     id="g68">
    <g
       fill="#000000"
       fill-opacity="1"
       id="g59"
       transform="matrix(4.8,0,0,4.8,-443.49,-353.866)">
      <g
         id="g58"
         transform="translate(91.925003,81.962997)">
        <path
           d="M 7.78125,-6.59375 C 7.796875,-6.625 7.828125,-6.6875 7.828125,-6.734375 7.828125,-6.796875 7.8125,-6.8125 7.59375,-6.8125 H 0.703125 c -0.21875,0 -0.234375,0.015625 -0.234375,0.078125 0,0.046875 0.03125,0.109375 0.046875,0.140625 L 3.875,0.140625 c 0.078125,0.125 0.109375,0.1875 0.265625,0.1875 0.171875,0 0.203125,-0.0625 0.28125,-0.1875 z m -6.078125,0.5 h 5.46875 l -2.71875,5.484375 z m 0,0"
           id="path57" />
      </g>
    </g>
    <g
       fill="#000000"
       fill-opacity="1"
       id="g61"
       transform="matrix(4.8,0,0,4.8,-443.49,-353.866)">
      <g
         id="g60"
         transform="translate(100.227,78.347)">
        <path
           d="M 3.515625,-1.265625 H 3.28125 c -0.015625,0.15625 -0.09375,0.5625 -0.1875,0.625 C 3.046875,-0.59375 2.515625,-0.59375 2.40625,-0.59375 H 1.125 c 0.734375,-0.640625 0.984375,-0.84375 1.390625,-1.171875 0.515625,-0.40625 1,-0.84375 1,-1.5 0,-0.84375 -0.734375,-1.359375 -1.625,-1.359375 -0.859375,0 -1.453125,0.609375 -1.453125,1.25 0,0.34375 0.296875,0.390625 0.375,0.390625 0.15625,0 0.359375,-0.125 0.359375,-0.375 0,-0.125 -0.046875,-0.375 -0.40625,-0.375 C 0.984375,-4.21875 1.453125,-4.375 1.78125,-4.375 c 0.703125,0 1.0625,0.546875 1.0625,1.109375 0,0.609375 -0.4375,1.078125 -0.65625,1.328125 L 0.515625,-0.265625 C 0.4375,-0.203125 0.4375,-0.1875 0.4375,0 h 2.875 z m 0,0"
           id="path59" />
      </g>
    </g>
    <g
       fill="#000000"
       fill-opacity="1"
       id="g63"
       transform="matrix(4.8,0,0,4.8,-443.49,-353.866)">
      <g
         id="g62"
         transform="translate(104.697,81.962997)">
        <path
           d="m 4.8125,-6.65625 c 0,-0.046875 0.015625,-0.109375 0.015625,-0.15625 0,-0.09375 -0.0625,-0.109375 -0.109375,-0.109375 -0.109375,0 -0.109375,0.03125 -0.15625,0.203125 L 2.90625,-0.125 c -0.75,-0.09375 -1.125,-0.46875 -1.125,-1.125 0,-0.203125 0,-0.453125 0.53125,-1.84375 0.046875,-0.125 0.109375,-0.296875 0.109375,-0.5 0,-0.4375 -0.3125,-0.8125 -0.8125,-0.8125 -0.953125,0 -1.3125,1.453125 -1.3125,1.53125 0,0.109375 0.09375,0.109375 0.109375,0.109375 0.109375,0 0.109375,-0.03125 0.15625,-0.1875 0.28125,-0.9375 0.671875,-1.234375 1.015625,-1.234375 0.078125,0 0.25,0 0.25,0.3125 0,0.265625 -0.109375,0.515625 -0.234375,0.859375 C 1.109375,-1.75 1.109375,-1.5 1.109375,-1.328125 1.109375,-0.375 1.890625,0.03125 2.84375,0.09375 2.765625,0.453125 2.765625,0.46875 2.625,1 2.609375,1.109375 2.40625,1.90625 2.40625,1.9375 c 0,0.015625 0,0.109375 0.109375,0.109375 0.03125,0 0.078125,0 0.09375,-0.046875 0.03125,-0.015625 0.09375,-0.265625 0.125,-0.40625 l 0.375,-1.484375 c 0.375,0 1.25,0 2.1875,-1.0625 0.40625,-0.46875 0.609375,-0.90625 0.71875,-1.203125 0.09375,-0.25 0.3125,-1.109375 0.3125,-1.546875 0,-0.5625 -0.265625,-0.703125 -0.4375,-0.703125 -0.25,0 -0.5,0.265625 -0.5,0.484375 0,0.125 0.0625,0.1875 0.15625,0.265625 0.109375,0.109375 0.359375,0.359375 0.359375,0.84375 0,0.640625 -0.515625,1.453125 -0.875,1.8125 -0.875,0.890625 -1.515625,0.890625 -1.875,0.890625 z m 0,0"
           id="path61" />
      </g>
    </g>
    <g
       fill="#000000"
       fill-opacity="1"
       id="g65"
       transform="matrix(4.8,0,0,4.8,-443.49,-353.866)">
      <g
         id="g64"
         transform="translate(114.311,81.962997)">
        <path
           d="m 6.84375,-3.265625 c 0.15625,0 0.34375,0 0.34375,-0.1875 C 7.1875,-3.65625 7,-3.65625 6.859375,-3.65625 h -5.96875 c -0.140625,0 -0.328125,0 -0.328125,0.203125 0,0.1875 0.1875,0.1875 0.328125,0.1875 z m 0.015625,1.9375 c 0.140625,0 0.328125,0 0.328125,-0.203125 0,-0.1875 -0.1875,-0.1875 -0.34375,-0.1875 H 0.890625 c -0.140625,0 -0.328125,0 -0.328125,0.1875 0,0.203125 0.1875,0.203125 0.328125,0.203125 z m 0,0"
           id="path63" />
      </g>
    </g>
    <g
       fill="#000000"
       fill-opacity="1"
       id="g67"
       transform="matrix(4.8,0,0,4.8,-443.49,-353.866)">
      <g
         id="g66"
         transform="translate(124.82951,81.962997)">
        <path
           d="m 4.578125,-3.1875 c 0,-0.796875 -0.046875,-1.59375 -0.390625,-2.328125 -0.453125,-0.96875 -1.28125,-1.125 -1.6875,-1.125 -0.609375,0 -1.328125,0.265625 -1.75,1.1875 -0.3125,0.6875 -0.359375,1.46875 -0.359375,2.265625 0,0.75 0.03125,1.640625 0.453125,2.40625 0.421875,0.796875 1.15625,1 1.640625,1 0.53125,0 1.296875,-0.203125 1.734375,-1.15625 0.3125,-0.6875 0.359375,-1.46875 0.359375,-2.25 z M 2.484375,0 C 2.09375,0 1.5,-0.25 1.328125,-1.203125 1.21875,-1.796875 1.21875,-2.71875 1.21875,-3.3125 c 0,-0.640625 0,-1.296875 0.078125,-1.828125 0.1875,-1.1875 0.9375,-1.28125 1.1875,-1.28125 0.328125,0 0.984375,0.1875 1.171875,1.171875 0.109375,0.5625 0.109375,1.3125 0.109375,1.9375 0,0.75 0,1.421875 -0.109375,2.0625 C 3.5,-0.296875 2.9375,0 2.484375,0 Z m 0,0"
           id="path65" />
      </g>
    </g>
  </g>
  <g
     inkscape:label=""
     transform="translate(302.56249,23.552385)"
     id="g71">
    <g
       fill="#000000"
       fill-opacity="1"
       id="g3"
       transform="matrix(4.8,0,0,4.8,-442.665,-360.197)">
      <g
         id="g69"
         transform="translate(92.425003,81.962997)">
        <path
           d="M 2.5,-6.921875 1.15625,-5.5625 1.328125,-5.390625 2.5,-6.40625 3.640625,-5.390625 3.8125,-5.5625 Z m 0,0"
           id="path4" />
      </g>
    </g>
    <g
       fill="#000000"
       fill-opacity="1"
       id="g4"
       transform="matrix(4.8,0,0,4.8,-442.665,-360.197)">
      <g
         id="g70"
         transform="translate(91.925003,81.962997)">
        <path
           d="m 0.875,-0.59375 c -0.03125,0.15625 -0.09375,0.390625 -0.09375,0.4375 0,0.171875 0.140625,0.265625 0.296875,0.265625 0.125,0 0.296875,-0.078125 0.375,-0.28125 0,-0.015625 0.125,-0.484375 0.1875,-0.734375 l 0.21875,-0.890625 C 1.90625,-2.03125 1.96875,-2.25 2.03125,-2.46875 c 0.03125,-0.171875 0.109375,-0.46875 0.125,-0.5 0.140625,-0.3125 0.671875,-1.21875 1.625,-1.21875 0.453125,0 0.53125,0.375 0.53125,0.703125 0,0.609375 -0.484375,1.890625 -0.640625,2.3125 C 3.578125,-0.9375 3.5625,-0.8125 3.5625,-0.703125 c 0,0.46875 0.359375,0.8125 0.828125,0.8125 0.9375,0 1.296875,-1.453125 1.296875,-1.53125 0,-0.109375 -0.078125,-0.109375 -0.109375,-0.109375 -0.109375,0 -0.109375,0.03125 -0.15625,0.1875 -0.203125,0.671875 -0.53125,1.234375 -1.015625,1.234375 -0.171875,0 -0.234375,-0.09375 -0.234375,-0.328125 0,-0.25 0.078125,-0.484375 0.171875,-0.703125 0.1875,-0.53125 0.609375,-1.625 0.609375,-2.203125 0,-0.65625 -0.421875,-1.0625 -1.140625,-1.0625 -0.90625,0 -1.390625,0.640625 -1.5625,0.875 -0.046875,-0.5625 -0.453125,-0.875 -0.921875,-0.875 -0.453125,0 -0.640625,0.390625 -0.734375,0.5625 C 0.421875,-3.5 0.296875,-2.90625 0.296875,-2.875 c 0,0.109375 0.09375,0.109375 0.109375,0.109375 0.109375,0 0.109375,-0.015625 0.171875,-0.234375 0.171875,-0.703125 0.375,-1.1875 0.734375,-1.1875 0.1875,0 0.296875,0.125 0.296875,0.453125 0,0.21875 -0.03125,0.328125 -0.15625,0.84375 z m 0,0"
           id="path5" />
      </g>
    </g>
  </g>
  <path
     style="fill:#000000;fill-opacity:1;fill-rule:evenodd;stroke:#000000;stroke-width:2.3326;stroke-linecap:round;stroke-linejoin:round;stroke-dasharray:none;stroke-opacity:1;marker-end:url(#ConcaveTriangle);paint-order:stroke fill markers"
     d="M 317.88013,91.66783 387.2681,40.251701"
     id="path77" />
</svg>
